<svg width="172" height="52" viewBox="0 0 172 52" fill="none" xmlns="http://www.w3.org/2000/svg">
<path d="M15.2029 51.7313H10.6025V29.353L15.177 25.2696L15.2029 51.7313Z" fill="#75AB11"/>
<path d="M7.22523 31.0362H0L31.8526 0L60.2755 27.6065L56.2784 30.911L31.8526 6.69824L7.22523 31.0362Z" fill="#75AB11"/>
<path d="M11.7744 1.771H20.0925V9.77518L11.7744 17.6642V1.771Z" fill="#75AB11"/>
<path d="M30.8668 17.8499H26.2419V22.4748H30.8668V17.8499Z" fill="black"/>
<path d="M37.065 17.8499H32.4402V22.4748H37.065V17.8499Z" fill="black"/>
<path d="M30.8668 24.158H26.2419V28.7828H30.8668V24.158Z" fill="black"/>
<path d="M37.065 24.158H32.4402V28.7828H37.065V24.158Z" fill="black"/>
<path d="M17.4678 37.8179H21.7643C22.7644 37.8128 23.7611 37.9347 24.7304 38.1807C25.6182 38.4015 26.4513 38.8018 27.1782 39.3571C27.8922 39.9184 28.4619 40.6421 28.8398 41.4679C29.2506 42.3319 29.4556 43.383 29.4546 44.6212C29.4754 45.6184 29.2716 46.6075 28.8585 47.5154C28.4801 48.3234 27.932 49.0404 27.2516 49.6176C26.5639 50.1944 25.7721 50.6343 24.9191 50.9135C24.0239 51.2057 23.0875 51.3516 22.1459 51.3454H17.4678V37.8179ZM20.3331 48.5953H21.8205C22.4415 48.5996 23.0608 48.5291 23.6649 48.385C24.2018 48.2606 24.706 48.023 25.1437 47.6882C25.5717 47.3486 25.9091 46.9083 26.1257 46.4067C26.3812 45.7929 26.5034 45.1318 26.4842 44.4672C26.4978 43.8715 26.3752 43.2805 26.1257 42.7394C25.9018 42.2667 25.5722 41.8519 25.1624 41.527C24.7384 41.1977 24.2549 40.9533 23.7384 40.8071C23.1805 40.6464 22.6026 40.5659 22.0221 40.568H20.3331V48.5953Z" fill="black"/>
<path d="M31.3691 37.818H34.2316V51.3527H31.3691V37.818Z" fill="black"/>
<path d="M36.8418 37.818H41.8727C42.5055 37.8151 43.1367 37.8827 43.7546 38.0195C44.314 38.138 44.8447 38.365 45.3168 38.6876C45.7723 39.0116 46.1383 39.4455 46.3809 39.949C46.6637 40.5685 46.7993 41.2452 46.7768 41.9259C46.7768 42.8858 46.5369 43.6979 46.0569 44.3621C45.577 45.0264 44.8791 45.4502 43.9634 45.6335L47.275 51.3469H43.8381L41.1196 45.9388H39.7028V51.3469H36.8418V37.818ZM39.7028 43.4176H41.3932C41.6495 43.4176 41.9216 43.4075 42.2096 43.3888C42.4774 43.3739 42.741 43.3156 42.99 43.216C43.2198 43.1224 43.4192 42.9669 43.5659 42.7668C43.7341 42.5113 43.8145 42.208 43.7949 41.9028C43.81 41.6154 43.7399 41.3299 43.5933 41.0821C43.4648 40.8844 43.2879 40.7228 43.0793 40.6127C42.8535 40.4993 42.61 40.4252 42.3593 40.3939C42.0976 40.3558 41.8334 40.3366 41.5689 40.3363H39.7028V43.4176Z" fill="black"/>
<path d="M48.8516 37.818H57.6851V40.5695H51.7154V43.0951H57.3539V45.8466H51.7154V48.5982H58.0148V51.3498H48.8516V37.818Z" fill="black"/>
<path d="M68.814 41.3341C68.5374 40.9823 68.1817 40.7006 67.7758 40.512C67.3279 40.313 66.8418 40.2147 66.3518 40.224C65.8351 40.2197 65.324 40.3309 64.8558 40.5494C64.3989 40.7651 63.9923 41.0741 63.6621 41.4565C63.3142 41.8643 63.0464 42.3343 62.8731 42.8416C62.4927 43.973 62.4927 45.1977 62.8731 46.329C63.0468 46.8317 63.3113 47.2983 63.6535 47.7055C63.9736 48.0866 64.3705 48.3957 64.8184 48.6126C65.2671 48.8298 65.7597 48.9411 66.2582 48.938C66.7931 48.9514 67.3222 48.8243 67.7926 48.5694C68.263 48.3145 68.6584 47.9406 68.9392 47.4852L71.3265 49.3383C70.8075 50.1141 70.0826 50.7299 69.233 51.1165C68.4152 51.4933 67.5258 51.6898 66.6254 51.6925C65.6658 51.7027 64.7127 51.5343 63.8148 51.1957C62.9834 50.8804 62.2268 50.3955 61.5931 49.7717C60.9559 49.1329 60.4587 48.3684 60.133 47.527C59.4361 45.6268 59.4361 43.541 60.133 41.6408C60.4587 40.7994 60.9559 40.0349 61.5931 39.3961C62.2271 38.7728 62.9836 38.2879 63.8148 37.972C64.7139 37.6346 65.668 37.4676 66.6283 37.4796C67.0145 37.4814 67.3999 37.5166 67.7801 37.5847C68.1822 37.6561 68.5759 37.7685 68.9551 37.9202C69.3493 38.0773 69.7226 38.2823 70.0667 38.5307C70.4296 38.7941 70.7513 39.11 71.0213 39.4681L68.814 41.3341Z" fill="black"/>
<path d="M75.4121 40.4558H71.6973V37.818H81.9808V40.4558H78.2717V51.3469H75.4121V40.4558Z" fill="black"/>
<path d="M85.5473 37.818H86.9872V43.5501H93.4536V37.818H94.8935V51.3527H93.4536V45.0475H86.9858V51.3527H85.5459L85.5473 37.818Z" fill="black"/>
<path d="M103.531 51.691C102.654 51.7012 101.787 51.5183 100.989 51.1554C100.227 50.8054 99.5457 50.3014 98.9878 49.6752C98.4062 49.0164 97.9586 48.2505 97.6703 47.4204C97.0422 45.5805 97.0422 43.5843 97.6703 41.7444C97.9586 40.9143 98.4062 40.1483 98.9878 39.4896C99.5464 38.8642 100.228 38.3604 100.989 38.0094C101.79 37.6562 102.655 37.4738 103.53 37.4738C104.405 37.4738 105.27 37.6562 106.07 38.0094C106.833 38.3621 107.515 38.8679 108.073 39.4954C108.655 40.1545 109.102 40.9203 109.391 41.7502C110.019 43.59 110.019 45.5863 109.391 47.4261C109.102 48.256 108.655 49.0218 108.073 49.6809C107.515 50.3062 106.833 50.8091 106.07 51.1582C105.273 51.5202 104.406 51.7021 103.531 51.691ZM103.531 50.2007C104.203 50.2085 104.868 50.0576 105.472 49.7601C106.056 49.4704 106.572 49.0601 106.986 48.5564C107.42 48.0262 107.754 47.4211 107.97 46.771C108.438 45.35 108.438 43.8162 107.97 42.3952C107.754 41.7446 107.42 41.1391 106.986 40.6084C106.572 40.1047 106.056 39.6944 105.472 39.4046C104.864 39.1149 104.2 38.9645 103.528 38.9645C102.855 38.9645 102.191 39.1149 101.584 39.4046C101 39.6944 100.483 40.1047 100.069 40.6084C99.6352 41.1391 99.3019 41.7446 99.0857 42.3952C98.6173 43.8162 98.6173 45.35 99.0857 46.771C99.3019 47.4211 99.6352 48.0262 100.069 48.5564C100.483 49.0601 101 49.4704 101.584 49.7601C102.189 50.0584 102.856 50.2094 103.531 50.2007Z" fill="black"/>
<path d="M112.171 37.818H114.309L118.416 48.4225H118.45L122.591 37.818H124.677V51.3527H123.238V40.0022H123.203L118.858 51.3527H117.988L113.642 40.0022H113.608V51.3527H112.168L112.171 37.818Z" fill="black"/>
<path d="M127.69 37.818H135.309V39.3082H129.132V43.5501H134.892V45.0418H129.132V49.8624H135.612V51.3527H127.693L127.69 37.818Z" fill="black"/>
<path d="M143.585 40.2067C143.372 39.7996 143.037 39.469 142.627 39.2607C142.239 39.0689 141.812 38.9703 141.379 38.9728C141.06 38.9728 140.743 39.0174 140.437 39.1052C140.139 39.1895 139.859 39.3255 139.608 39.5069C139.357 39.6917 139.155 39.9342 139.018 40.2139C138.863 40.5356 138.786 40.8894 138.794 41.2463C138.79 41.5224 138.833 41.7971 138.922 42.0584C139.013 42.3001 139.156 42.5185 139.341 42.6977C139.575 42.916 139.84 43.0968 140.129 43.2333C140.523 43.4249 140.929 43.5908 141.344 43.7301C141.813 43.8961 142.266 44.0742 142.704 44.2643C143.126 44.4432 143.519 44.686 143.868 44.9842C144.212 45.2883 144.486 45.663 144.672 46.0828C145.091 47.1853 145.07 48.4069 144.611 49.4938C144.388 49.9691 144.064 50.3897 143.661 50.7264C143.259 51.0529 142.797 51.2975 142.3 51.4463C141.787 51.6048 141.253 51.6853 140.717 51.6853C140.36 51.6846 140.005 51.6494 139.655 51.5802C139.305 51.5107 138.963 51.4015 138.637 51.2548C138.308 51.1058 138 50.9119 137.723 50.6789C137.43 50.4357 137.181 50.1433 136.987 49.8149L138.218 48.6875C138.462 49.165 138.844 49.5579 139.314 49.8149C139.77 50.0672 140.282 50.199 140.803 50.1979C141.12 50.1961 141.434 50.1441 141.735 50.0439C142.041 49.9466 142.328 49.7949 142.581 49.5961C142.835 49.3957 143.045 49.1452 143.197 48.8603C143.361 48.5499 143.444 48.2033 143.438 47.8524C143.451 47.5019 143.387 47.1528 143.249 46.8301C143.117 46.5597 142.919 46.3267 142.673 46.1519C142.366 45.9382 142.033 45.7649 141.681 45.6365L140.277 45.1008C139.865 44.9577 139.464 44.782 139.079 44.5753C138.726 44.3882 138.406 44.145 138.131 43.8553C137.855 43.5559 137.64 43.2058 137.497 42.8244C137.333 42.3624 137.255 41.8745 137.267 41.3845C137.253 40.7994 137.37 40.2187 137.608 39.6841C137.823 39.2166 138.139 38.8022 138.532 38.4703C138.921 38.1443 139.368 37.8946 139.85 37.7345C140.965 37.3694 142.173 37.4066 143.264 37.8396C143.869 38.1083 144.391 38.5338 144.777 39.0721L143.585 40.2067Z" fill="black"/>
<path d="M148.579 48.4225L153.831 43.7041C154.115 43.4466 154.382 43.1726 154.633 42.8834C154.896 42.5896 155.04 42.2079 155.035 41.8136C155.044 41.607 155.004 41.4012 154.918 41.2133C154.831 41.0254 154.701 40.861 154.538 40.7337C154.207 40.4727 153.795 40.3344 153.373 40.342C152.838 40.342 152.421 40.5076 152.122 40.8388C151.82 41.1772 151.641 41.6081 151.615 42.0612L148.75 41.851C148.772 41.2195 148.921 40.5988 149.189 40.0267C149.427 39.5268 149.771 39.0846 150.197 38.7308C150.635 38.3776 151.139 38.1144 151.679 37.9562C152.277 37.78 152.898 37.6932 153.522 37.6984C154.105 37.6946 154.685 37.7815 155.241 37.9562C155.752 38.116 156.226 38.3759 156.635 38.7207C157.037 39.0679 157.354 39.5023 157.562 39.9907C157.795 40.5536 157.908 41.1585 157.896 41.7675C157.901 42.1632 157.856 42.5579 157.762 42.9424C157.68 43.2754 157.554 43.5963 157.389 43.897C157.232 44.1817 157.043 44.4478 156.826 44.6904C156.604 44.9388 156.368 45.1749 156.119 45.3974L152.011 48.9351H158.01V51.4577H148.573L148.579 48.4225Z" fill="black"/>
<path d="M171.738 46.2426C171.746 46.9966 171.623 47.7464 171.375 48.4585C171.145 49.1142 170.777 49.7131 170.297 50.2152C169.793 50.7289 169.183 51.1264 168.51 51.38C166.908 51.9406 165.164 51.9406 163.563 51.38C162.889 51.1268 162.28 50.7291 161.777 50.2152C161.296 49.7135 160.927 49.1145 160.697 48.4585C160.449 47.7464 160.326 46.9966 160.334 46.2426V37.9317H163.315V46.1274C163.311 46.5246 163.378 46.9193 163.515 47.2922C163.64 47.6353 163.831 47.9504 164.078 48.2195C164.32 48.4814 164.614 48.6894 164.942 48.83C165.289 48.979 165.663 49.054 166.041 49.0503C166.415 49.0544 166.786 48.9794 167.129 48.83C167.456 48.6886 167.75 48.4807 167.993 48.2195C168.24 47.9507 168.432 47.6356 168.556 47.2922C168.693 46.9194 168.761 46.5247 168.758 46.1274V37.9317H171.738V46.2426Z" fill="black"/>
</svg>
